<svg width="253" height="103" viewBox="0 0 253 103" fill="none" xmlns="http://www.w3.org/2000/svg">
<path d="M147.731 61.0398C146.312 61.3235 145.802 62.1633 145.798 63.3784C145.792 65.9725 145.749 68.5674 145.798 71.1605C145.83 72.8605 146.597 73.5581 148.391 73.5759C151.644 73.6081 154.897 73.5982 158.149 73.5815C160.542 73.5692 161.189 72.9361 161.192 70.5703C161.204 62.6749 161.197 54.7794 161.196 46.8839C161.196 46.2718 161.196 45.6597 161.196 44.9458C163.163 44.9458 165.012 44.9458 166.989 44.9458C167.016 45.4439 167.064 45.9315 167.065 46.4191C167.069 54.4838 167.077 62.5485 167.065 70.6132C167.056 76.1 164.193 79.1783 158.692 79.374C154.933 79.5078 151.16 79.4599 147.399 79.3241C143.41 79.1801 140.188 76.0408 139.998 72.0849C139.845 68.8799 139.846 65.6565 139.997 62.4513C140.181 58.5442 143.303 55.5675 147.272 55.2535C147.784 55.213 148.297 55.1825 148.81 55.1815C152.061 55.1751 155.312 55.1783 158.68 55.1783C158.68 57.0726 158.68 58.9079 158.68 61.0253C155.126 61.0253 151.503 61.0253 147.731 61.0398Z" fill="#530082"/>
<path d="M74.0049 66.2116C73.9926 68.1579 74.0352 69.9402 73.9571 71.7175C73.7699 75.9794 70.7763 79.0381 66.3908 79.2186C62.6947 79.3707 58.9869 79.2499 55.1866 79.2499C55.1866 77.4256 55.1866 75.614 55.1866 73.5773C58.0673 73.5773 60.9546 73.579 63.8419 73.5761C64.5266 73.5754 65.2116 73.5682 65.896 73.5482C67.2613 73.5083 68.06 72.8158 68.0778 71.4885C68.1149 68.7075 68.0916 65.9252 68.0535 63.144C68.0372 61.9547 67.3215 61.2495 66.1307 61.2333C62.3645 61.1819 58.5966 61.1608 54.8307 61.2175C53.1265 61.2432 52.6987 62.4613 52.6951 63.8748C52.6845 67.9365 52.691 71.9983 52.6909 76.0601C52.6908 79.606 52.6909 83.152 52.6909 86.7729C50.6791 86.7729 48.8278 86.7729 46.8199 86.7729C46.8199 84.8749 46.8182 83.0528 46.8202 81.2307C46.8269 75.2216 46.7955 69.2122 46.8558 63.2036C46.8988 58.924 50.0107 55.7127 54.4299 55.5278C58.3035 55.3657 62.1913 55.3737 66.0679 55.4777C70.6763 55.6014 73.6684 58.5542 73.9465 63.043C74.0084 64.0413 73.9876 65.0445 74.0049 66.2116Z" fill="#530082"/>
<path d="M86.6866 79.4531C81.6427 79.4335 78.904 77.8226 77.6311 74.223C75.8168 69.0923 79.2573 63.7743 84.6239 63.5835C88.1599 63.4577 91.704 63.5597 95.3383 63.5597C95.3383 65.3427 95.3383 67.0517 95.3383 68.9969C92.6247 68.9969 89.8724 68.9947 87.1201 68.9983C86.399 68.9993 85.6727 68.9664 84.958 69.04C83.5492 69.185 82.7112 69.9815 82.6683 71.4357C82.6244 72.9238 83.5174 73.7144 84.8773 73.8904C85.9157 74.0247 86.9818 73.9513 88.0356 73.954C90.3667 73.96 92.6985 73.9882 95.0288 73.9458C97.0334 73.9094 97.8836 73.0867 97.9295 71.0854C97.9859 68.6254 97.9897 66.1619 97.9292 63.702C97.8806 61.7276 96.9943 60.902 94.9868 60.889C90.9993 60.863 87.0115 60.8813 82.9351 60.8813C82.9351 59.0579 82.9351 57.3518 82.9351 55.5443C83.2893 55.5005 83.6582 55.4151 84.027 55.4155C88.0227 55.4198 92.0208 55.3561 96.0134 55.4758C99.5747 55.5826 102.722 57.9313 103.047 61.4159C103.433 65.549 103.325 69.7853 102.895 73.9204C102.585 76.9106 99.5197 79.2014 96.5027 79.333C93.2895 79.4732 90.0681 79.4212 86.6866 79.4531Z" fill="#530082"/>
<path d="M114.385 78.0643C114.385 78.6128 114.385 78.9954 114.385 79.4531C112.398 79.4531 110.549 79.4531 108.603 79.4531C108.573 78.9989 108.52 78.5659 108.52 78.1328C108.514 71.7991 108.509 65.4654 108.519 59.1316C108.524 56.4258 109.474 55.4437 112.179 55.4365C116.568 55.4248 120.963 55.3285 125.343 55.5229C131.512 55.7968 135.443 59.7614 135.631 65.844C135.77 70.3194 135.659 74.8022 135.659 79.4091C133.737 79.4091 131.845 79.4091 129.797 79.4091C129.797 75.3632 129.799 71.3404 129.796 67.3176C129.793 62.835 128.169 61.2291 123.647 61.2289C120.632 61.2288 117.617 61.2289 114.385 61.2289C114.385 66.848 114.385 72.3732 114.385 78.0643Z" fill="#530082"/>
<path d="M244.151 73.2072C244.764 72.4993 245.573 71.8517 245.62 71.1523C245.784 68.724 245.704 66.2775 245.676 63.8384C245.655 62.0121 245.181 61.5398 243.335 61.5288C239.547 61.5061 235.758 61.4741 231.971 61.5487C230.701 61.5737 230.248 61.1758 230.334 59.9041C230.426 58.5488 230.395 57.1808 230.342 55.8214C230.303 54.8324 230.611 54.3654 231.677 54.3752C235.804 54.4132 239.935 54.2814 244.058 54.4271C249.365 54.6147 252.728 58.1916 252.796 63.4916C252.828 65.9874 252.821 68.4841 252.798 70.98C252.746 76.5768 249.816 79.9936 244.253 80.3486C240.206 80.6068 236.107 80.516 232.061 80.1996C227.555 79.8471 224.499 75.9526 224.586 71.2378C224.67 66.695 227.913 63.0678 232.424 62.7971C236.087 62.5773 239.768 62.6833 243.44 62.6165C244.367 62.5997 244.785 62.9407 244.753 63.9087C244.707 65.3255 244.67 66.7497 244.763 68.1618C244.848 69.4517 244.326 69.8587 243.099 69.8374C240.103 69.7852 237.106 69.8256 234.11 69.8187C232.888 69.8159 231.733 69.9841 231.74 71.547C231.748 73.141 233.007 73.233 234.16 73.2431C237.439 73.2717 240.718 73.2473 244.151 73.2072ZM246.17 60.77C246.419 61.2613 247.012 61.9197 247.026 62.4176C247.117 65.6918 247.238 68.9744 247.087 72.2422C247.02 73.7149 245.859 74.7029 244.313 74.7279C240.584 74.788 236.851 74.8168 233.124 74.7062C231.015 74.6436 229.845 72.8773 230.291 70.8012C230.652 69.1223 231.769 68.28 233.762 68.2663C236.901 68.2448 240.041 68.2606 243.156 68.2606C243.156 66.7873 243.156 65.5592 243.156 64.1848C240.327 64.1848 237.572 64.1792 234.816 64.1883C234.026 64.1909 233.219 64.1463 232.449 64.2853C231.572 64.4438 230.663 64.6604 229.879 65.0662C227.009 66.5495 225.569 70.0759 226.336 73.5065C226.996 76.4576 229.659 78.668 233.008 78.78C236.622 78.9009 240.243 78.8766 243.859 78.8211C248.193 78.7546 250.931 76.1824 251.198 71.8234C251.367 69.0542 251.397 66.2625 251.264 63.4917C251.056 59.1228 248.982 56.4555 245.015 56.1437C240.705 55.8049 236.348 56.0668 231.994 56.0668C231.994 57.3961 231.994 58.6227 231.994 60.0257C235.738 60.0257 239.4 59.9734 243.058 60.0594C244.08 60.0834 244.952 60.3424 246.17 60.77Z" fill="#2E2A27"/>
<path d="M246.17 60.7698C246.42 61.261 247.012 61.9194 247.026 62.4173C247.117 65.6916 247.238 68.9741 247.087 72.2419C247.02 73.7146 245.86 74.7026 244.313 74.7276C240.584 74.7877 236.851 74.8165 233.124 74.7059C231.015 74.6433 229.846 72.877 230.292 70.8009C230.652 69.122 231.769 68.2797 233.762 68.266C236.902 68.2445 240.041 68.2603 243.156 68.2603V64.1845C240.327 64.1845 237.572 64.1789 234.817 64.188C234.026 64.1906 233.22 64.146 232.449 64.285C231.572 64.4435 230.664 64.6601 229.879 65.0659C227.01 66.5492 225.569 70.0756 226.337 73.5062C226.996 76.4573 229.659 78.6677 233.008 78.7797C236.622 78.9006 240.243 78.8763 243.859 78.8208C248.194 78.7543 250.931 76.1821 251.198 71.8231C251.368 69.0539 251.397 66.2622 251.265 63.4914C251.056 59.1225 248.982 56.4552 245.015 56.1434C240.705 55.8046 236.348 56.0666 231.994 56.0666V60.0254C235.738 60.0254 239.4 59.9732 243.059 60.0591C244.081 60.0831 244.953 60.3421 246.17 60.7698Z" fill="white"/>
<path d="M209.09 69.0102C209.09 67.3625 209.061 65.5073 209.09 63.8602C209.134 61.3043 209.604 60.8303 212.18 60.7702C214.273 60.7213 216.265 60.7212 218.36 60.7208C220.264 60.7204 222.624 60.7208 224.54 60.7208L224.54 55.6201C220.142 55.6201 215.083 55.4853 210.795 55.6614C207.148 55.8112 204.213 58.4119 204.064 61.873C203.828 67.3566 203.94 73.7831 203.94 79.3101H209.09V69.0102Z" fill="white"/>
<path d="M211.722 54.3984C215.903 54.3822 219.928 54.418 223.951 54.3573C225.195 54.3386 225.706 54.7159 225.622 56.0124C225.53 57.4287 225.54 58.859 225.62 60.2768C225.686 61.4544 225.287 61.8692 224.082 61.8491C220.228 61.7846 216.373 61.8164 212.519 61.8281C210.286 61.8348 210.013 62.1154 210.009 64.4065C209.999 69.1853 209.955 73.9651 210.038 78.7425C210.062 80.1401 209.564 80.5564 208.271 80.4926C206.857 80.4228 205.436 80.4335 204.021 80.4906C202.977 80.5327 202.621 80.0815 202.626 79.0816C202.65 73.734 202.615 68.3861 202.655 63.0387C202.691 58.3043 206.288 54.6215 211.722 54.3984ZM208.505 68.7939C208.505 67.1462 208.483 65.4981 208.511 63.8509C208.556 61.2951 209.432 60.3969 212.007 60.3368C214.101 60.2879 216.196 60.3252 218.29 60.3248C220.194 60.3244 222.099 60.3247 224.014 60.3247C224.014 58.7365 224.014 57.4042 224.014 56.0064C219.616 56.0064 215.316 55.8715 211.029 56.0476C207.381 56.1975 204.446 58.7981 204.297 62.2593C204.061 67.7428 204.234 73.2441 204.234 78.7711C205.668 78.7711 207.041 78.7711 208.505 78.7711C208.505 75.4822 208.505 72.3087 208.505 68.7939Z" fill="#2E2A27"/>
<path fill-rule="evenodd" clip-rule="evenodd" d="M197.76 59.7401C198.103 60.4267 198.79 62.2121 198.79 63.8601V72.1001C198.446 73.8167 196.936 77.4561 193.64 78.2801C192.61 78.6234 189.52 79.3101 185.4 79.3101C180.25 79.3101 176.13 79.3101 175.1 77.2501C174.07 76.2201 172.01 72.9241 172.01 67.9801C172.01 66.2634 172.216 62.2121 173.04 59.7401C174.07 58.0234 176.954 54.7961 180.25 55.6201H191.58C193.296 55.6201 196.936 56.4441 197.76 59.7401ZM191.58 60.7701H180.25C178.724 61.5327 178.258 62.3542 178.197 62.7445L178.19 72.1001C179.014 73.7481 180.593 74.1601 181.28 74.1601H191.58C193.228 74.1601 193.64 72.8243 193.64 72.1564V63.8601C194.464 61.3881 192.61 60.7701 191.58 60.7701Z" fill="white"/>
<path d="M178.19 62.8301C178.19 62.8045 178.192 62.7759 178.197 62.7445M178.197 62.7445C178.258 62.3542 178.724 61.5327 180.25 60.7701H191.58C192.61 60.7701 194.464 61.3881 193.64 63.8601V72.1564C193.64 72.8243 193.228 74.1601 191.58 74.1601H181.28C180.593 74.1601 179.014 73.7481 178.19 72.1001L178.197 62.7445ZM191.58 55.6201C193.296 55.6201 196.936 56.4441 197.76 59.7401C198.103 60.4267 198.79 62.2121 198.79 63.8601V72.1001C198.446 73.8167 196.936 77.4561 193.64 78.2801C192.61 78.6234 189.52 79.3101 185.4 79.3101C180.25 79.3101 176.13 79.3101 175.1 77.2501C174.07 76.2201 172.01 72.9241 172.01 67.9801C172.01 66.2634 172.216 62.2121 173.04 59.7401C174.07 58.0234 176.954 54.7961 180.25 55.6201H191.58Z" stroke="black" stroke-width="0.2"/>
<path d="M171.271 63.8696C171.49 57.8342 174.92 54.4176 180.711 54.3933C184.279 54.3783 187.866 54.2569 191.413 54.5598C196.374 54.9835 199.296 58.3679 199.45 63.4639C199.522 65.8414 199.47 68.223 199.463 70.6028C199.445 76.4913 196.629 79.8785 190.824 80.3186C186.89 80.6168 182.895 80.5213 178.959 80.2055C174.442 79.8433 171.515 76.4755 171.316 71.8514C171.205 69.2498 171.28 66.6399 171.271 63.8696ZM196.914 75.2715C197.188 74.5939 197.689 73.919 197.697 73.2382C197.743 69.3382 197.971 65.4031 197.55 61.546C197.184 58.1933 194.481 56.1503 191.092 56.0493C187.3 55.9363 183.5 55.9125 179.709 56.0395C175.839 56.1692 173.208 58.7258 172.933 62.6201C172.73 65.4956 172.665 68.4008 172.814 71.278C173.073 76.2815 175.826 78.79 180.805 78.8208C183.875 78.8398 186.945 78.8367 190.014 78.8205C192.786 78.806 195.139 77.8821 196.914 75.2715Z" fill="#2E2A27"/>
<path d="M189.923 60.6404C193.525 60.7446 194.234 61.4575 194.239 64.8276C194.242 66.8294 194.292 68.8329 194.223 70.8325C194.141 73.247 193.207 74.1497 190.734 74.1875C187.497 74.2369 184.257 74.2372 181.02 74.1865C178.547 74.1477 177.593 73.1898 177.559 70.8095C177.526 68.5377 177.509 66.264 177.565 63.9929C177.624 61.5815 178.574 60.6794 181.052 60.649C183.955 60.6134 186.858 60.6405 189.923 60.6404ZM192.337 62.566C191.989 62.4109 191.642 62.1242 191.293 62.1209C187.712 62.0877 184.131 62.0843 180.551 62.1102C179.494 62.1178 179.134 62.7804 179.14 63.7374C179.156 66.1771 179.164 68.6172 179.131 71.0566C179.116 72.1269 179.6 72.7323 180.685 72.7376C184.21 72.7546 187.736 72.7733 191.257 72.6541C191.732 72.6381 192.562 71.8474 192.575 71.3977C192.658 68.5335 192.558 65.6644 192.337 62.566Z" fill="#2E2A27"/>
<path d="M58.7013 91.4438C65.4341 91.595 71.1763 89.3045 76.5068 85.6907C77.4466 85.0535 78.3827 84.2473 79.9337 84.1958C77.825 87.1344 75.6633 89.616 73.0295 91.7073C67.6563 95.9738 61.2934 96.3169 54.9492 95.9404C43.2656 95.2469 32.9986 90.4519 23.3681 84.1055C22.8004 83.7314 22.195 83.4146 21.4752 83.2058C22.8679 86.1399 25.1044 88.3926 27.4725 90.476C34.1722 96.37 41.9656 99.8816 50.8472 100.989C51.8517 101.115 53.167 100.823 53.839 102.089C53.3894 103.101 52.5166 102.998 51.7304 102.996C47.9794 102.988 44.4011 102.023 40.8483 100.954C38.8811 100.363 36.9334 99.7066 34.9219 99.0619C34.8235 100.262 35.9744 100.575 36.3475 101.905C22.2439 95.6973 11.7237 86.3897 5.31904 72.0763C5.22722 73.4896 5.16894 74.3865 5.11159 75.2691C4.39064 75.3661 4.34058 74.8639 4.1758 74.4778C-1.06981 62.1871 -1.23986 49.7202 2.91651 37.1175C6.909 25.0117 14.0534 15.3281 25.0806 8.74439C32.1243 4.53895 39.7928 1.99227 47.8944 0.771926C50.1261 0.43578 52.3763 0.139035 54.6278 0.0345352C62.3806 -0.325304 69.6122 2.19818 76.9053 4.28206C81.0171 5.45695 85.0373 6.92624 88.7956 9.02469C90.573 10.0171 92.2144 11.166 93.3559 12.8934C93.6542 13.3448 94.0841 13.8534 93.6634 14.439C93.2707 14.9856 92.699 14.9305 92.1232 14.7491C91.4052 14.5229 90.68 14.3197 89.9637 14.0883C89.5838 13.9655 89.216 13.8973 88.9268 14.2393C88.591 14.6366 88.6851 15.0685 88.9312 15.4645C89.3772 16.1822 90.0567 16.6171 90.7843 17.0218C93.4852 18.5239 95.5263 20.723 97.2397 23.255C97.5956 23.7811 97.8971 24.3288 97.8451 24.9832C97.4784 25.6735 96.928 24.9365 96.4045 25.2284C97.1665 26.2156 97.9147 27.185 98.9001 28.4616C96.8138 28.2623 95.4508 26.9294 93.596 26.7798C93.6333 27.6103 94.1863 28.0324 94.5974 28.5252C97.1768 31.6173 99.8627 34.6311 101.724 38.2493C102.389 39.542 102.991 40.8702 103 42.3505C103.007 43.5922 102.448 44.6025 101.206 44.9443C99.9726 45.2838 99.3601 44.3283 98.9134 43.4218C98.3598 42.2985 97.9504 41.104 97.4578 39.8885C96.8748 44.5385 98.5343 49.2486 97.1299 54.0277C96.0834 53.528 96.1271 52.7556 95.9857 52.046C95.5103 49.6603 95.3844 47.1397 93.4721 45.2829C92.9274 44.7541 92.4085 44.1768 91.5999 44.0984C87.8665 43.7363 86.1737 41.0669 84.8045 38.065C82.8363 33.7498 79.6114 31.0464 74.8596 30.4587C73.2001 30.2535 71.7946 29.8884 70.8689 28.3937C69.7003 26.5069 67.7163 26.5276 65.8575 26.3381C59.7288 25.7134 53.8811 26.6287 48.2438 29.2402C45.1334 30.6811 41.7413 31.4146 38.3303 32.1312C39.5083 30.3357 41.8136 30.0138 43.5468 28.158C39.0519 28.9684 35.5457 30.9466 31.9001 32.5876C24.0485 36.1217 21.2089 42.8243 19.9334 50.7406C16.9143 69.4781 29.3302 84.6591 45.3387 89.5777C49.6395 90.8991 54.012 91.6214 58.7013 91.4438Z" fill="#530082"/>
</svg>
