<svg width="123" height="50" viewBox="0 0 123 50" fill="none" xmlns="http://www.w3.org/2000/svg">
<path d="M71.7141 29.631C71.0254 29.7687 70.7775 30.1764 70.776 30.7662C70.7727 32.0255 70.7519 33.2851 70.7756 34.5439C70.7912 35.3692 71.1635 35.7078 72.0346 35.7165C73.6135 35.7321 75.1926 35.7273 76.7715 35.7192C77.9331 35.7132 78.247 35.4059 78.2487 34.2575C78.2543 30.4247 78.2508 26.5919 78.2508 22.7592C78.2508 22.462 78.2508 22.1649 78.2508 21.8184C79.2052 21.8184 80.1029 21.8184 81.0625 21.8184C81.0755 22.0601 81.0993 22.2969 81.0994 22.5336C81.1017 26.4485 81.1056 30.3634 81.0995 34.2783C81.0954 36.9417 79.7052 38.4361 77.0352 38.5311C75.2102 38.596 73.3786 38.5728 71.553 38.5069C69.6166 38.4369 68.0522 36.913 67.9605 34.9927C67.8861 33.4368 67.8866 31.8721 67.9598 30.3162C68.0489 28.4195 69.5647 26.9745 71.4915 26.8221C71.7397 26.8025 71.989 26.7877 72.2378 26.7872C73.816 26.784 75.3941 26.7856 77.0294 26.7856C77.0294 27.7052 77.0294 28.5961 77.0294 29.6239C75.3039 29.6239 73.5453 29.6239 71.7141 29.631Z" fill="#530082"/>
<path d="M35.9246 32.1415C35.9187 33.0863 35.9393 33.9515 35.9014 34.8143C35.8105 36.8831 34.3573 38.368 32.2285 38.4556C30.4343 38.5294 28.6343 38.4708 26.7896 38.4708C26.7896 37.5852 26.7896 36.7057 26.7896 35.7171C28.1879 35.7171 29.5895 35.7179 30.9911 35.7165C31.3235 35.7161 31.6561 35.7127 31.9883 35.7029C32.651 35.6836 33.0388 35.3474 33.0474 34.7031C33.0654 33.3531 33.0541 32.0025 33.0356 30.6524C33.0277 30.0751 32.6803 29.7327 32.1022 29.7248C30.274 29.6999 28.4449 29.6897 26.6168 29.7172C25.7895 29.7296 25.5818 30.321 25.5801 31.0071C25.5749 32.9788 25.5781 34.9506 25.578 36.9223C25.578 38.6437 25.578 40.365 25.578 42.1227C24.6015 42.1227 23.7027 42.1227 22.728 42.1227C22.728 41.2013 22.7272 40.3168 22.7282 39.4323C22.7314 36.5153 22.7162 33.5981 22.7455 30.6813C22.7664 28.6038 24.277 27.0449 26.4222 26.9552C28.3026 26.8765 30.1899 26.8804 32.0717 26.9309C34.3088 26.9909 35.7613 28.4243 35.8963 30.6034C35.9263 31.088 35.9162 31.5749 35.9246 32.1415Z" fill="#530082"/>
<path d="M42.0808 38.5694C39.6323 38.5599 38.3028 37.7779 37.6849 36.0305C36.8042 33.5399 38.4743 30.9584 41.0794 30.8657C42.796 30.8047 44.5164 30.8542 46.2806 30.8542C46.2806 31.7197 46.2806 32.5493 46.2806 33.4936C44.9633 33.4936 43.6273 33.4925 42.2912 33.4943C41.9412 33.4947 41.5886 33.4788 41.2417 33.5145C40.5577 33.5849 40.151 33.9715 40.1301 34.6775C40.1088 35.3998 40.5423 35.7836 41.2025 35.8691C41.7066 35.9343 42.2241 35.8986 42.7356 35.9C43.8672 35.9029 44.9992 35.9166 46.1304 35.896C47.1035 35.8783 47.5162 35.4789 47.5385 34.5074C47.5659 33.3132 47.5677 32.1174 47.5383 30.9233C47.5148 29.9648 47.0845 29.564 46.11 29.5577C44.1743 29.5451 42.2385 29.554 40.2596 29.554C40.2596 28.6688 40.2596 27.8406 40.2596 26.9632C40.4316 26.9419 40.6107 26.9005 40.7897 26.9007C42.7294 26.9027 44.6702 26.8718 46.6084 26.93C48.3371 26.9818 49.8648 28.1219 50.0228 29.8135C50.2102 31.8198 50.1574 33.8763 49.9491 35.8836C49.7984 37.3352 48.3105 38.4472 46.8459 38.5111C45.2861 38.5792 43.7223 38.5539 42.0808 38.5694Z" fill="#530082"/>
<path d="M55.5268 37.8952C55.5268 38.1615 55.5268 38.3472 55.5268 38.5694C54.5623 38.5694 53.6645 38.5694 52.7198 38.5694C52.7053 38.3489 52.6795 38.1387 52.6793 37.9285C52.6767 34.8539 52.6741 31.7792 52.6791 28.7046C52.6813 27.3911 53.1426 26.9144 54.456 26.9109C56.5862 26.9052 58.7196 26.8584 60.846 26.9528C63.841 27.0858 65.7488 29.0103 65.8404 31.9631C65.9078 34.1356 65.8536 36.3117 65.8536 38.548C64.921 38.548 64.0026 38.548 63.008 38.548C63.008 36.584 63.009 34.6312 63.0077 32.6784C63.0064 30.5024 62.2181 29.7228 60.0227 29.7227C58.5591 29.7227 57.0956 29.7227 55.5268 29.7227C55.5268 32.4504 55.5268 35.1326 55.5268 37.8952Z" fill="#530082"/>
<path d="M118.52 35.5375C118.817 35.1938 119.21 34.8794 119.233 34.5399C119.312 33.3611 119.274 32.1735 119.26 30.9895C119.25 30.1029 119.02 29.8737 118.123 29.8683C116.285 29.8573 114.445 29.8418 112.607 29.878C111.991 29.8901 111.771 29.697 111.813 29.0796C111.857 28.4217 111.842 27.7577 111.816 27.0977C111.797 26.6177 111.947 26.3909 112.465 26.3957C114.468 26.4141 116.473 26.3502 118.474 26.4209C121.051 26.512 122.683 28.2483 122.717 30.8211C122.732 32.0327 122.729 33.2447 122.717 34.4563C122.692 37.1732 121.27 38.8318 118.569 39.0041C116.605 39.1295 114.615 39.0854 112.651 38.9318C110.464 38.7607 108.98 36.8702 109.022 34.5814C109.063 32.3762 110.637 30.6154 112.827 30.484C114.605 30.3773 116.392 30.4287 118.175 30.3963C118.625 30.3882 118.827 30.5537 118.812 31.0236C118.79 31.7114 118.772 32.4027 118.817 33.0882C118.858 33.7144 118.605 33.912 118.009 33.9016C116.555 33.8763 115.1 33.8959 113.645 33.8925C113.052 33.8912 112.491 33.9729 112.495 34.7315C112.499 35.5053 113.11 35.55 113.67 35.5549C115.262 35.5688 116.854 35.5569 118.52 35.5375ZM119.568 29.584C119.689 29.8224 119.908 30.0581 119.915 30.2998C119.96 31.8892 120.018 33.4827 119.945 35.069C119.912 35.7839 119.349 36.2635 118.599 36.2756C116.788 36.3048 114.976 36.3188 113.167 36.2651C112.143 36.2348 111.575 35.3773 111.792 34.3695C111.967 33.5545 112.509 33.1456 113.477 33.139C115.001 33.1285 116.525 33.1362 118.037 33.1362C118.037 32.421 118.037 31.8248 118.037 31.1576C116.664 31.1576 115.326 31.1549 113.988 31.1594C113.605 31.1606 113.213 31.139 112.839 31.2065C112.413 31.2834 111.972 31.3885 111.591 31.5855C110.199 32.3055 109.5 34.0174 109.872 35.6827C110.192 37.1153 111.485 38.1883 113.111 38.2427C114.865 38.3014 116.623 38.2896 118.378 38.2627C120.482 38.2304 121.811 36.9817 121.941 34.8657C122.023 33.5214 122.037 32.1662 121.973 30.8212C121.872 28.7004 120.865 27.4055 118.939 27.2542C116.847 27.0898 114.732 27.2169 112.618 27.2169C112.618 27.8622 112.618 28.4576 112.618 29.1387C114.436 29.1387 116.213 29.1133 117.989 29.155C118.486 29.1667 118.977 29.3764 119.568 29.584Z" fill="#2E2A27"/>
<path d="M83.1414 31.0046C83.2475 28.0748 84.9126 26.4163 87.7237 26.4045C89.4561 26.3972 91.1971 26.3383 92.9191 26.4853C95.3273 26.691 96.7456 28.3339 96.8206 30.8077C96.8556 31.9618 96.8303 33.118 96.8268 34.2732C96.8182 37.1317 95.4511 38.7759 92.6329 38.9896C90.7236 39.1343 88.7842 39.088 86.8732 38.9347C84.6807 38.7589 83.2598 37.124 83.1634 34.8793C83.1091 33.6164 83.1457 32.3495 83.1414 31.0046ZM95.5895 36.5395C95.7223 36.2106 95.9658 35.883 95.9697 35.5525C95.992 33.6593 96.1026 31.7491 95.8983 29.8767C95.7206 28.2491 94.4084 27.2574 92.7633 27.2084C90.9226 27.1535 89.0777 27.142 87.2376 27.2036C85.3586 27.2666 84.0817 28.5076 83.9483 30.3981C83.8498 31.794 83.818 33.2042 83.8903 34.6009C84.0161 37.0298 85.3523 38.2475 87.7696 38.2625C89.2597 38.2717 90.75 38.2702 92.2401 38.2624C93.5857 38.2553 94.7279 37.8068 95.5895 36.5395Z" fill="#2E2A27"/>
<path d="M102.778 26.407C104.807 26.3991 106.761 26.4165 108.714 26.387C109.318 26.3779 109.566 26.5611 109.525 27.1905C109.48 27.878 109.486 28.5723 109.524 29.2606C109.556 29.8322 109.363 30.0336 108.777 30.0238C106.907 29.9925 105.035 30.0079 103.164 30.0136C102.08 30.0169 101.948 30.1531 101.946 31.2653C101.941 33.5851 101.92 35.9054 101.96 38.2245C101.972 38.903 101.73 39.105 101.102 39.074C100.416 39.0401 99.726 39.0454 99.0392 39.0731C98.5325 39.0935 98.3596 38.8745 98.3618 38.3891C98.3737 35.7932 98.3567 33.1971 98.3762 30.6013C98.3935 28.3031 100.14 26.5152 102.778 26.407ZM101.216 33.3951C101.216 32.5952 101.205 31.7952 101.219 30.9956C101.241 29.7549 101.666 29.3189 102.916 29.2897C103.932 29.2659 104.949 29.2841 105.966 29.2839C106.89 29.2837 107.815 29.2838 108.745 29.2838C108.745 28.5128 108.745 27.8661 108.745 27.1875C106.61 27.1875 104.522 27.1221 102.441 27.2076C100.67 27.2803 99.2456 28.5428 99.1733 30.2229C99.0587 32.8848 99.1427 35.5554 99.1427 38.2384C99.8386 38.2384 100.505 38.2384 101.216 38.2384C101.216 36.6418 101.216 35.1013 101.216 33.3951Z" fill="#2E2A27"/>
<path d="M92.1956 29.4371C93.944 29.4877 94.2884 29.8338 94.2908 31.4697C94.2923 32.4415 94.3162 33.4141 94.283 34.3848C94.2429 35.5568 93.7898 35.9951 92.5892 36.0134C91.0177 36.0374 89.4452 36.0375 87.8737 36.0129C86.6732 35.9941 86.2102 35.5291 86.1935 34.3736C86.1774 33.2708 86.1693 32.167 86.1965 31.0646C86.2253 29.894 86.6865 29.4561 87.8894 29.4413C89.2984 29.424 90.7079 29.4372 92.1956 29.4371ZM93.3675 30.3719C93.1986 30.2966 93.0302 30.1574 92.8606 30.1558C91.1225 30.1397 89.3841 30.1381 87.6459 30.1506C87.133 30.1543 86.958 30.476 86.961 30.9405C86.9687 32.1248 86.9729 33.3094 86.9565 34.4935C86.9494 35.0131 87.1846 35.307 87.7113 35.3095C89.4221 35.3178 91.1339 35.3269 92.843 35.269C93.0735 35.2612 93.4767 34.8774 93.483 34.6591C93.5233 33.2687 93.4747 31.876 93.3675 30.3719Z" fill="#2E2A27"/>
<path d="M28.4958 44.3902C31.7641 44.4636 34.5516 43.3517 37.1392 41.5974C37.5954 41.2881 38.0498 40.8968 38.8028 40.8718C37.7791 42.2983 36.7298 43.5029 35.4512 44.5181C32.8429 46.5892 29.7541 46.7558 26.6744 46.573C21.0027 46.2364 16.0188 43.9087 11.3438 40.8279C11.0682 40.6463 10.7743 40.4925 10.4248 40.3912C11.1009 41.8155 12.1866 42.909 13.3362 43.9204C16.5884 46.7816 20.3716 48.4862 24.6831 49.024C25.1707 49.0848 25.8092 48.9431 26.1354 49.5577C25.9172 50.049 25.4935 49.9991 25.1118 49.9982C23.291 49.9942 21.5539 49.5255 19.8293 49.0069C18.8743 48.7198 17.9288 48.4012 16.9524 48.0883C16.9046 48.671 17.4633 48.8228 17.6444 49.4686C10.798 46.455 5.69112 41.9367 2.58206 34.9885C2.53748 35.6745 2.50919 36.11 2.48136 36.5384C2.13138 36.5855 2.10708 36.3417 2.02709 36.1543C-0.519326 30.1879 -0.601873 24.136 1.41578 18.0182C3.35388 12.1416 6.82202 7.44084 12.175 4.24485C15.5943 2.20338 19.3169 0.967123 23.2497 0.374721C24.333 0.211543 25.4254 0.0674926 26.5184 0.0167647C30.2818 -0.157914 33.7923 1.06708 37.3327 2.07867C39.3287 2.64901 41.2802 3.36225 43.1047 4.38092C43.9675 4.86269 44.7643 5.4204 45.3184 6.25891C45.4632 6.47805 45.6719 6.72496 45.4677 7.00923C45.277 7.27458 44.9995 7.24782 44.72 7.15976C44.3715 7.04997 44.0194 6.95131 43.6717 6.83896C43.4873 6.77936 43.3088 6.74626 43.1684 6.9123C43.0053 7.10513 43.051 7.3148 43.1705 7.50703C43.387 7.85545 43.7168 8.06657 44.0701 8.26302C45.3812 8.9922 46.372 10.0597 47.2037 11.2888C47.3765 11.5442 47.5229 11.8101 47.4976 12.1278C47.3196 12.4629 47.0524 12.1051 46.7983 12.2468C47.1682 12.726 47.5314 13.1966 48.0097 13.8163C46.997 13.7195 46.3354 13.0725 45.435 12.9999C45.4531 13.4031 45.7215 13.608 45.9211 13.8472C47.1732 15.3482 48.4771 16.8112 49.3808 18.5676C49.7036 19.1952 49.9956 19.8399 50 20.5585C50.0036 21.1613 49.7319 21.6517 49.1291 21.8176C48.5304 21.9824 48.2331 21.5186 48.0162 21.0786C47.7475 20.5332 47.5488 19.9534 47.3096 19.3634C47.0266 21.6206 47.8322 23.9071 47.1504 26.2271C46.6424 25.9845 46.6637 25.6095 46.595 25.2651C46.3642 24.107 46.3031 22.8833 45.3748 21.982C45.1104 21.7253 44.8585 21.4451 44.466 21.407C42.6536 21.2312 41.8319 19.9354 41.1672 18.4782C40.2118 16.3834 38.6463 15.0711 36.3396 14.7858C35.5341 14.6862 34.8517 14.5089 34.4024 13.7834C33.8351 12.8674 32.872 12.8775 31.9697 12.7855C28.9946 12.4822 26.1559 12.9266 23.4193 14.1943C21.9094 14.8938 20.2628 15.2498 18.6069 15.5977C19.1788 14.7261 20.2979 14.5698 21.1392 13.6689C18.9572 14.0623 17.2552 15.0226 15.4855 15.8192C11.674 17.5348 10.2956 20.7885 9.67641 24.6314C8.21081 33.7272 14.2379 41.0967 22.0091 43.4843C24.0968 44.1258 26.2194 44.4764 28.4958 44.3902Z" fill="#530082"/>
</svg>
