<svg version="1.1" id="Layer_1" xmlns="http://www.w3.org/2000/svg" xmlns:xlink="http://www.w3.org/1999/xlink" x="0px" y="0px"
	 width="100%" viewBox="0 0 400 336" enable-background="new 0 0 400 336" xml:space="preserve">
<path fill="#000000" opacity="1.000000" stroke="none" 
	d="
M215.919220,288.705475 
	C233.747330,289.105804 248.952545,283.042664 263.067352,273.477051 
	C265.556000,271.790466 268.034668,269.656342 272.141846,269.520050 
	C266.557953,277.298553 260.833984,283.867371 253.859818,289.402985 
	C239.631607,300.696442 222.782883,301.604675 205.983887,300.607941 
	C175.046143,298.772430 147.859558,286.079865 122.358421,269.280975 
	C120.855156,268.290710 119.251884,267.452240 117.345894,266.899445 
	C121.033714,274.666016 126.955841,280.629028 133.226608,286.143738 
	C150.967010,301.745270 171.603638,311.040314 195.121765,313.972778 
	C197.781616,314.304413 201.264603,313.531555 203.043976,316.882935 
	C201.853546,319.562073 199.542343,319.289642 197.460403,319.285004 
	C187.527969,319.262909 178.052872,316.707458 168.645172,313.879730 
	C163.436172,312.314056 158.278671,310.577087 152.952225,308.870636 
	C152.691666,312.047760 155.739166,312.875610 156.727295,316.397003 
	C119.381493,299.964417 91.524384,275.327148 74.565109,237.439560 
	C74.321960,241.180542 74.167648,243.554764 74.015800,245.891006 
	C72.106728,246.147812 71.974174,244.818359 71.537849,243.796387 
	C57.647682,211.262756 57.197407,178.262863 68.203316,144.903381 
	C78.775253,112.859306 97.693214,87.226967 126.892883,69.799744 
	C145.544434,58.667942 165.850174,51.926868 187.303040,48.696606 
	C193.212296,47.806824 199.170929,47.021339 205.132736,46.744728 
	C225.661758,45.792233 244.810776,52.471916 264.122620,57.987957 
	C275.010590,61.097889 285.655823,64.987091 295.607635,70.541710 
	C300.314270,73.168724 304.660492,76.209854 307.683075,80.782074 
	C308.472992,81.977005 309.611481,83.323387 308.497467,84.873466 
	C307.457611,86.320374 305.943787,86.174431 304.419006,85.694267 
	C302.517853,85.095573 300.597382,84.557625 298.700897,83.945015 
	C297.694733,83.619995 296.720978,83.439499 295.955200,84.344910 
	C295.065887,85.396378 295.315033,86.539688 295.966644,87.587868 
	C297.147736,89.487755 298.946960,90.638947 300.873718,91.710159 
	C308.025513,95.686264 313.430328,101.507317 317.967285,108.209465 
	C318.909851,109.601898 319.708008,111.051636 319.570282,112.783997 
	C318.599457,114.611183 317.141907,112.660431 315.755646,113.433044 
	C317.773407,116.046188 319.754822,118.612251 322.363922,121.991219 
	C316.839569,121.463669 313.230469,117.935440 308.319061,117.539665 
	C308.417725,119.737938 309.882050,120.855179 310.970612,122.159637 
	C317.800720,130.344330 324.913025,138.321915 329.842529,147.899521 
	C331.603638,151.321289 333.196594,154.837051 333.220184,158.755402 
	C333.239960,162.042114 331.758148,164.716324 328.469910,165.621140 
	C325.203888,166.519836 323.582184,163.990433 322.399261,161.591080 
	C320.933319,158.617554 319.849304,155.455765 318.544800,152.238434 
	C317.001007,164.547012 321.395325,177.014603 317.676514,189.664963 
	C314.905365,188.342163 315.021240,186.297607 314.646820,184.419418 
	C313.387878,178.104446 313.054535,171.432297 307.990845,166.517441 
	C306.548523,165.117523 305.174469,163.589539 303.033325,163.381927 
	C293.147400,162.423416 288.665070,155.357605 285.039459,147.411545 
	C279.827698,135.989243 271.288422,128.833206 258.705658,127.277756 
	C254.311554,126.734573 250.589661,125.767982 248.138504,121.811592 
	C245.044174,116.817085 239.790649,116.872101 234.868546,116.370506 
	C218.639893,114.716698 203.155563,117.139709 188.228195,124.052345 
	C179.991974,127.866425 171.009766,129.807785 161.977509,131.704865 
	C165.096954,126.952072 171.201279,126.099960 175.790573,121.187630 
	C163.888367,123.332764 154.604202,128.569092 144.950714,132.912750 
	C124.159843,142.267731 116.640938,160.009537 113.263344,180.964050 
	C105.268791,230.562073 138.145599,270.746368 180.535645,283.765991 
	C191.923813,287.263672 203.502167,289.175507 215.919220,288.705475 
z"/>
</svg>