<?xml version="1.0" standalone="no"?>
<!DOCTYPE svg PUBLIC "-//W3C//DTD SVG 20010904//EN"
 "http://www.w3.org/TR/2001/REC-SVG-20010904/DTD/svg10.dtd">
<svg version="1.0" xmlns="http://www.w3.org/2000/svg"
 width="700.000000pt" height="700.000000pt" viewBox="0 0 700.000000 700.000000"
 preserveAspectRatio="xMidYMid meet">
<metadata>
Created by potrace 1.14, written by Peter Selinger 2001-2017
</metadata>
<g transform="translate(0.000000,700.000000) scale(0.100000,-0.100000)"
fill="#000000" stroke="none">
<path d="M3638 6995 c-2 -1 -37 -5 -78 -9 -41 -4 -88 -8 -105 -11 -16 -2 -84
-11 -150 -21 -66 -9 -129 -18 -140 -20 -11 -3 -54 -11 -95 -19 -374 -69 -761
-197 -1100 -366 -860 -428 -1442 -1101 -1759 -2034 -44 -130 -119 -402 -135
-491 -35 -189 -33 -172 -45 -264 -21 -160 -26 -243 -25 -470 0 -241 4 -298 30
-480 16 -113 65 -341 91 -430 10 -30 18 -57 18 -60 11 -44 94 -278 124 -344
11 -27 21 -54 21 -61 0 -18 49 -38 55 -22 4 11 12 112 15 182 l0 30 19 -40
c48 -105 79 -168 133 -264 32 -58 58 -106 58 -107 0 -2 13 -22 28 -46 16 -24
54 -82 86 -130 167 -254 394 -515 616 -708 41 -36 83 -73 95 -84 44 -40 286
-217 380 -279 136 -89 326 -196 470 -266 135 -66 211 -101 220 -101 8 0 -25
61 -42 78 -24 25 -42 56 -47 83 l-4 27 41 -13 c23 -8 76 -24 117 -38 330 -108
572 -173 715 -193 22 -3 63 -9 91 -13 29 -4 102 -7 164 -7 110 1 112 1 136 30
l25 29 -27 28 c-28 29 -45 34 -144 44 -237 23 -519 91 -750 182 -122 48 -317
142 -387 186 -24 15 -45 27 -49 27 -3 0 -54 32 -112 72 -231 156 -454 353
-584 513 -59 73 -150 216 -142 224 8 8 90 -34 177 -91 49 -32 91 -58 93 -58 3
0 24 -13 47 -28 146 -100 515 -293 727 -381 69 -29 134 -57 145 -62 37 -17
349 -117 415 -133 132 -31 236 -54 280 -61 25 -4 54 -9 65 -11 11 -2 40 -6 65
-9 25 -3 55 -7 67 -9 92 -19 536 -27 668 -13 252 26 465 96 646 213 173 110
398 338 547 551 l22 31 -22 -3 c-57 -7 -92 -24 -223 -108 -139 -90 -374 -216
-470 -251 -92 -34 -260 -84 -305 -91 -25 -4 -47 -8 -50 -10 -7 -4 -100 -16
-192 -24 -95 -8 -408 -6 -503 3 -396 39 -790 163 -1125 354 -54 31 -237 151
-265 173 -211 173 -337 295 -440 424 -47 59 -165 224 -165 231 0 3 -8 18 -19
32 -38 54 -121 221 -164 327 -53 131 -102 297 -123 415 -3 14 -7 32 -9 40 -2
8 -7 40 -10 70 -3 30 -9 87 -13 125 -9 79 -7 313 2 402 8 80 15 133 21 163 3
14 7 41 10 60 26 168 109 440 177 575 115 227 275 402 481 523 68 40 201 104
482 233 136 62 445 158 445 138 0 -12 -68 -61 -174 -125 -89 -54 -173 -121
-163 -131 3 -2 24 1 48 6 24 5 55 12 69 15 179 33 357 89 563 175 286 120 479
171 742 196 63 6 292 7 365 1 160 -13 197 -17 239 -28 71 -17 117 -44 153 -90
88 -112 149 -147 289 -167 210 -30 366 -105 498 -241 68 -70 124 -155 196
-300 32 -63 75 -140 96 -171 76 -113 193 -190 320 -210 74 -12 111 -33 166
-92 91 -98 126 -196 169 -472 9 -51 29 -92 54 -105 17 -9 20 -6 31 32 23 86
28 157 24 338 -3 102 -7 199 -10 215 -8 44 -12 284 -5 324 5 32 8 27 49 -75
56 -138 86 -191 125 -215 53 -33 129 -10 176 53 22 29 25 42 24 118 -1 70 -6
99 -32 165 -34 86 -127 248 -205 358 -48 67 -240 309 -274 345 -27 29 -97 113
-104 126 -4 6 -10 22 -14 35 -7 22 -5 23 27 16 18 -4 67 -21 108 -37 118 -48
152 -60 190 -65 l35 -5 -20 23 c-11 13 -23 26 -26 29 -14 12 -119 158 -119
165 0 4 18 5 40 1 36 -6 40 -4 46 18 8 35 -1 58 -63 149 -94 138 -219 263
-347 346 -153 101 -166 110 -186 144 -25 41 -25 69 0 92 22 20 24 19 154 -20
105 -31 147 -28 165 11 10 22 8 33 -10 72 -29 60 -147 178 -234 234 -100 65
-342 186 -455 227 -19 7 -44 17 -55 21 -222 94 -1106 342 -1335 376 -19 3 -40
7 -47 9 -6 2 -38 7 -70 10 -32 4 -69 9 -83 12 -27 5 -436 13 -442 8z"/>
</g>
</svg>
