<svg width="50" height="50" viewBox="0 0 50 50" fill="none" xmlns="http://www.w3.org/2000/svg">
<path d="M0 0H49.8756V26.9243L47.4069 30.7817L49.8756 34.2147V49.8756H0V24.4942L1.54294 22.7198L0 21.0226V0Z" fill="#016FD0"/>
<path d="M9.68164 34.7547V26.9243H17.9726L18.8621 28.0839L19.7811 26.9243H49.8753V34.2147C49.8753 34.2147 49.0883 34.7469 48.178 34.7547H31.5143L30.5114 33.5204V34.7547H27.2249V32.6477C27.2249 32.6477 26.776 32.9418 25.8054 32.9418H24.6868V34.7547H19.7108L18.8225 33.5703L17.9206 34.7547H9.68164Z" fill="white"/>
<path d="M0 21.0226L1.86965 16.6638H5.10301L6.16405 19.1054V16.6638H10.1834L10.8151 18.4285L11.4274 16.6638H29.4702V17.551C29.4702 17.551 30.4187 16.6638 31.9775 16.6638L37.8317 16.6843L38.8744 19.0939V16.6638H42.238L43.1638 18.048V16.6638H46.5583V24.4942H43.1638L42.2766 23.1056V24.4942H37.3347L36.8377 23.2599H35.5092L35.0203 24.4942H31.6689C30.3276 24.4942 29.4702 23.6252 29.4702 23.6252V24.4942H24.4171L23.4141 23.2599V24.4942H4.624L4.12737 23.2599H2.80306L2.30993 24.4942H0V21.0226Z" fill="white"/>
<path d="M2.53151 17.6292L0.00976562 23.4923H1.65155L2.11685 22.3183H4.82182L5.2847 23.4923H6.96265L4.44331 17.6292H2.53151ZM3.46451 18.9937L4.28902 21.0453H2.63759L3.46451 18.9937Z" fill="#016FD0"/>
<path d="M7.13574 23.4914V17.6282L9.46881 17.6368L10.8258 21.417L12.1503 17.6282H14.4647V23.4914H12.9989V19.1711L11.4451 23.4914H10.1596L8.60154 19.1711V23.4914H7.13574Z" fill="#016FD0"/>
<path d="M15.4678 23.4914V17.6282H20.2509V18.9397H16.949V19.9426H20.1737V21.1769H16.949V22.2184H20.2509V23.4914H15.4678Z" fill="#016FD0"/>
<path d="M21.0996 17.6292V23.4923H22.5654V21.4094H23.1826L24.9401 23.4923H26.7313L24.8027 21.3322C25.5942 21.2654 26.4107 20.5861 26.4107 19.5313C26.4107 18.2975 25.4423 17.6292 24.3615 17.6292H21.0996ZM22.5654 18.9406H24.2409C24.6429 18.9406 24.9353 19.2551 24.9353 19.5578C24.9353 19.9474 24.5564 20.175 24.2626 20.175H22.5654V18.9406Z" fill="#016FD0"/>
<path d="M28.5054 23.4914H27.0088V17.6282H28.5054V23.4914Z" fill="#016FD0"/>
<path d="M32.0549 23.4914H31.7318C30.1688 23.4914 29.2197 22.2599 29.2197 20.5839C29.2197 18.8664 30.1581 17.6282 32.132 17.6282H33.7521V19.0168H32.0728C31.2715 19.0168 30.7048 19.6422 30.7048 20.5983C30.7048 21.7338 31.3528 22.2107 32.2863 22.2107H32.6721L32.0549 23.4914Z" fill="#016FD0"/>
<path d="M35.2444 17.6292L32.7227 23.4923H34.3644L34.8297 22.3183H37.5347L37.9976 23.4923H39.6755L37.1562 17.6292H35.2444ZM36.1774 18.9937L37.0019 21.0453H35.3505L36.1774 18.9937Z" fill="#016FD0"/>
<path d="M39.8467 23.4914V17.6282H41.7103L44.0898 21.312V17.6282H45.5556V23.4914H43.7523L41.3125 19.7111V23.4914H39.8467Z" fill="#016FD0"/>
<path d="M10.6846 33.7519V27.8887H15.4677V29.2002H12.1658V30.2031H15.3905V31.4374H12.1658V32.4789H15.4677V33.7519H10.6846Z" fill="#016FD0"/>
<path d="M34.1221 33.7519V27.8887H38.9052V29.2002H35.6033V30.2031H38.8126V31.4374H35.6033V32.4789H38.9052V33.7519H34.1221Z" fill="#016FD0"/>
<path d="M15.6541 33.7519L17.983 30.8564L15.5986 27.8887H17.4453L18.8653 29.7233L20.2901 27.8887H22.0645L19.7115 30.8203L22.0447 33.7519H20.1983L18.8195 31.9461L17.4743 33.7519H15.6541Z" fill="#016FD0"/>
<path d="M22.2188 27.8896V33.7528H23.7231V31.9013H25.2661C26.5716 31.9013 27.5612 31.2087 27.5612 29.8617C27.5612 28.7459 26.7851 27.8896 25.4565 27.8896H22.2188ZM23.7231 29.2156H25.348C25.7698 29.2156 26.0713 29.4741 26.0713 29.8907C26.0713 30.282 25.7713 30.5657 25.3432 30.5657H23.7231V29.2156Z" fill="#016FD0"/>
<path d="M28.1973 27.8887V33.7519H29.6631V31.6689H30.2802L32.0377 33.7519H33.829L31.9003 31.5917C32.6919 31.5249 33.5084 30.8456 33.5084 29.7908C33.5084 28.557 32.54 27.8887 31.4591 27.8887H28.1973ZM29.6631 29.2002H31.3386C31.7405 29.2002 32.0329 29.5146 32.0329 29.8173C32.0329 30.2069 31.6541 30.4345 31.3603 30.4345H29.6631V29.2002Z" fill="#016FD0"/>
<path d="M39.5846 33.7519V32.4789H42.5181C42.9521 32.4789 43.1401 32.2444 43.1401 31.9871C43.1401 31.7406 42.9527 31.4914 42.5181 31.4914H41.1925C40.0402 31.4914 39.3984 30.7894 39.3984 29.7354C39.3984 28.7953 39.9861 27.8887 41.6984 27.8887H44.5528L43.9357 29.2079H41.4669C40.995 29.2079 40.8498 29.4555 40.8498 29.692C40.8498 29.935 41.0293 30.2031 41.3898 30.2031H42.7784C44.063 30.2031 44.6203 30.9317 44.6203 31.8859C44.6203 32.9117 43.9992 33.7519 42.7085 33.7519H39.5846Z" fill="#016FD0"/>
<path d="M44.9644 33.7519V32.4789H47.898C48.332 32.4789 48.52 32.2444 48.52 31.9871C48.52 31.7406 48.3326 31.4914 47.898 31.4914H46.5723C45.4201 31.4914 44.7783 30.7894 44.7783 29.7354C44.7783 28.7953 45.366 27.8887 47.0783 27.8887H49.9327L49.3155 29.2079H46.8468C46.3749 29.2079 46.2297 29.4555 46.2297 29.692C46.2297 29.935 46.4092 30.2031 46.7697 30.2031H48.1583C49.4428 30.2031 50.0002 30.9317 50.0002 31.8859C50.0002 32.9117 49.3791 33.7519 48.0884 33.7519H44.9644Z" fill="#016FD0"/>
</svg>
