<svg width="123" height="50" viewBox="0 0 123 50" fill="none" xmlns="http://www.w3.org/2000/svg">
<path d="M71.7146 29.6309C71.0259 29.7686 70.778 30.1762 70.7765 30.7661C70.7732 32.0254 70.7523 33.285 70.7761 34.5438C70.7917 35.3691 71.164 35.7077 72.0351 35.7163C73.614 35.732 75.1931 35.7271 76.772 35.7191C77.9336 35.7131 78.2475 35.4057 78.2492 34.2573C78.2548 30.4246 78.2513 26.5918 78.2512 22.759C78.2512 22.4619 78.2512 22.1648 78.2512 21.8182C79.2057 21.8182 80.1034 21.8182 81.063 21.8182C81.076 22.06 81.0998 22.2967 81.0999 22.5334C81.1022 26.4483 81.1061 30.3632 81.1 34.2781C81.0959 36.9416 79.7057 38.436 77.0357 38.531C75.2106 38.5959 73.3791 38.5726 71.5535 38.5067C69.6171 38.4368 68.0527 36.9129 67.9609 34.9926C67.8866 33.4367 67.8871 31.872 67.9602 30.316C68.0494 28.4194 69.5652 26.9744 71.492 26.822C71.7402 26.8023 71.9895 26.7875 72.2383 26.787C73.8165 26.7839 75.3946 26.7855 77.0299 26.7855C77.0299 27.705 77.0299 28.5959 77.0299 29.6238C75.3044 29.6238 73.5458 29.6238 71.7146 29.6309Z" fill="white"/>
<path d="M35.9251 32.1415C35.9191 33.0863 35.9398 33.9515 35.9019 34.8143C35.811 36.8831 34.3578 38.368 32.229 38.4556C30.4348 38.5294 28.6348 38.4708 26.79 38.4708C26.79 37.5852 26.79 36.7057 26.79 35.7171C28.1884 35.7171 29.59 35.7179 30.9916 35.7165C31.324 35.7161 31.6565 35.7127 31.9888 35.7029C32.6515 35.6836 33.0393 35.3474 33.0479 34.7031C33.0659 33.3531 33.0546 32.0025 33.0361 30.6524C33.0282 30.0751 32.6807 29.7327 32.1027 29.7248C30.2745 29.6999 28.4454 29.6897 26.6173 29.7172C25.79 29.7296 25.5823 30.321 25.5805 31.0071C25.5754 32.9788 25.5786 34.9506 25.5785 36.9223C25.5785 38.6437 25.5785 40.365 25.5785 42.1227C24.6019 42.1227 23.7032 42.1227 22.7285 42.1227C22.7285 41.2013 22.7277 40.3168 22.7287 39.4323C22.7319 36.5153 22.7167 33.5981 22.746 30.6813C22.7668 28.6038 24.2775 27.0449 26.4227 26.9552C28.3031 26.8765 30.1904 26.8804 32.0722 26.9309C34.3093 26.9909 35.7618 28.4243 35.8968 30.6034C35.9268 31.088 35.9167 31.5749 35.9251 32.1415Z" fill="white"/>
<path d="M42.0812 38.5694C39.6327 38.5599 38.3033 37.7779 37.6854 36.0305C36.8047 33.5399 38.4748 30.9584 41.0799 30.8657C42.7965 30.8047 44.5169 30.8542 46.2811 30.8542C46.2811 31.7197 46.2811 32.5493 46.2811 33.4936C44.9638 33.4936 43.6278 33.4925 42.2917 33.4943C41.9417 33.4947 41.5891 33.4788 41.2421 33.5145C40.5582 33.5849 40.1514 33.9715 40.1306 34.6775C40.1093 35.3998 40.5428 35.7836 41.2029 35.8691C41.7071 35.9343 42.2246 35.8986 42.7361 35.9C43.8677 35.9029 44.9996 35.9166 46.1309 35.896C47.104 35.8783 47.5167 35.4789 47.539 34.5074C47.5664 33.3132 47.5682 32.1174 47.5388 30.9233C47.5152 29.9648 47.085 29.564 46.1105 29.5577C44.1748 29.5451 42.239 29.554 40.2601 29.554C40.2601 28.6688 40.2601 27.8406 40.2601 26.9632C40.4321 26.9419 40.6112 26.9005 40.7902 26.9007C42.7299 26.9027 44.6707 26.8718 46.6089 26.93C48.3376 26.9818 49.8653 28.1219 50.0233 29.8135C50.2107 31.8198 50.1579 33.8763 49.9496 35.8836C49.7989 37.3352 48.3109 38.4472 46.8463 38.5111C45.2866 38.5792 43.7228 38.5539 42.0812 38.5694Z" fill="white"/>
<path d="M55.5273 37.8952C55.5273 38.1615 55.5273 38.3472 55.5273 38.5694C54.5627 38.5694 53.665 38.5694 52.7203 38.5694C52.7058 38.3489 52.68 38.1387 52.6798 37.9285C52.6772 34.8539 52.6746 31.7792 52.6796 28.7046C52.6818 27.3911 53.1431 26.9144 54.4565 26.9109C56.5867 26.9052 58.7201 26.8584 60.8465 26.9528C63.8414 27.0858 65.7493 29.0103 65.8409 31.9631C65.9083 34.1356 65.8541 36.3117 65.8541 38.548C64.9215 38.548 64.0031 38.548 63.0085 38.548C63.0085 36.584 63.0095 34.6312 63.0082 32.6784C63.0068 30.5024 62.2186 29.7228 60.0231 29.7227C58.5596 29.7227 57.0961 29.7227 55.5273 29.7227C55.5273 32.4504 55.5273 35.1326 55.5273 37.8952Z" fill="white"/>
<path d="M118.52 35.5376C118.817 35.1939 119.21 34.8796 119.233 34.5401C119.312 33.3613 119.274 32.1736 119.26 30.9896C119.25 30.1031 119.02 29.8738 118.123 29.8684C116.285 29.8574 114.445 29.8419 112.607 29.8781C111.991 29.8902 111.771 29.6971 111.813 29.0798C111.857 28.4219 111.842 27.7578 111.816 27.0979C111.797 26.6178 111.947 26.3911 112.465 26.3958C114.468 26.4143 116.473 26.3503 118.474 26.421C121.051 26.5121 122.683 28.2484 122.717 30.8213C122.732 32.0328 122.729 33.2448 122.717 34.4564C122.692 37.1733 121.27 38.8319 118.569 39.0043C116.605 39.1296 114.615 39.0855 112.651 38.9319C110.464 38.7608 108.98 36.8703 109.022 34.5815C109.063 32.3763 110.637 30.6156 112.827 30.4841C114.605 30.3774 116.392 30.4289 118.175 30.3965C118.625 30.3883 118.827 30.5538 118.812 31.0237C118.79 31.7115 118.772 32.4029 118.817 33.0883C118.858 33.7145 118.605 33.9121 118.009 33.9017C116.555 33.8764 115.1 33.896 113.645 33.8927C113.052 33.8913 112.491 33.973 112.495 34.7317C112.499 35.5054 113.11 35.5501 113.67 35.555C115.262 35.5689 116.854 35.557 118.52 35.5376ZM119.568 29.5841C119.689 29.8225 119.908 30.0582 119.915 30.2999C119.96 31.8893 120.018 33.4828 119.945 35.0691C119.912 35.784 119.349 36.2637 118.599 36.2758C116.788 36.305 114.976 36.3189 113.167 36.2652C112.143 36.2349 111.575 35.3774 111.792 34.3696C111.967 33.5546 112.509 33.1457 113.477 33.1391C115.001 33.1286 116.525 33.1363 118.037 33.1363C118.037 32.4211 118.037 31.825 118.037 31.1578C116.664 31.1578 115.326 31.1551 113.988 31.1595C113.605 31.1607 113.213 31.1391 112.839 31.2066C112.413 31.2835 111.972 31.3887 111.591 31.5856C110.199 32.3057 109.5 34.0175 109.872 35.6829C110.192 37.1154 111.485 38.1884 113.111 38.2428C114.865 38.3015 116.623 38.2897 118.378 38.2628C120.482 38.2305 121.811 36.9818 121.941 34.8658C122.023 33.5215 122.037 32.1664 121.973 30.8213C121.872 28.7005 120.865 27.4057 118.939 27.2543C116.847 27.0899 114.732 27.217 112.618 27.217C112.618 27.8623 112.618 28.4577 112.618 29.1388C114.436 29.1388 116.213 29.1134 117.989 29.1551C118.486 29.1668 118.977 29.3765 119.568 29.5841Z" fill="#661395"/>
<path d="M83.1419 31.0048C83.248 28.0749 84.9131 26.4164 87.7242 26.4046C89.4566 26.3973 91.1976 26.3384 92.9196 26.4855C95.3278 26.6911 96.7461 28.334 96.821 30.8078C96.856 31.9619 96.8308 33.1181 96.8273 34.2733C96.8187 37.1318 95.4516 38.7761 92.6334 38.9897C90.7241 39.1345 88.7847 39.0881 86.8737 38.9348C84.6812 38.759 83.2603 37.1242 83.1639 34.8794C83.1096 33.6165 83.1462 32.3496 83.1419 31.0048ZM95.59 36.5397C95.7228 36.2107 95.9663 35.8831 95.9702 35.5526C95.9925 33.6594 96.1031 31.7492 95.8987 29.8768C95.7211 28.2493 94.4089 27.2575 92.7638 27.2085C90.9231 27.1536 89.0782 27.1421 87.2381 27.2037C85.3591 27.2667 84.0822 28.5078 83.9488 30.3982C83.8503 31.7941 83.8185 33.2044 83.8908 34.6011C84.0166 37.03 85.3528 38.2477 87.7701 38.2626C89.2602 38.2718 90.7505 38.2703 92.2406 38.2625C93.5862 38.2554 94.7284 37.807 95.59 36.5397Z" fill="#661395"/>
<path d="M102.778 26.4071C104.807 26.3992 106.761 26.4166 108.715 26.3872C109.319 26.3781 109.566 26.5612 109.525 27.1906C109.481 27.8781 109.486 28.5724 109.525 29.2607C109.557 29.8323 109.363 30.0337 108.778 30.0239C106.907 29.9926 105.036 30.0081 103.165 30.0137C102.081 30.017 101.949 30.1532 101.946 31.2654C101.942 33.5852 101.92 35.9055 101.96 38.2246C101.972 38.9031 101.73 39.1052 101.103 39.0742C100.417 39.0403 99.7265 39.0455 99.0397 39.0732C98.533 39.0936 98.3601 38.8746 98.3623 38.3892C98.3742 35.7933 98.3572 33.1972 98.3767 30.6014C98.394 28.3032 100.14 26.5154 102.778 26.4071ZM101.216 33.3952C101.217 32.5953 101.206 31.7953 101.219 30.9957C101.241 29.755 101.666 29.319 102.917 29.2898C103.933 29.2661 104.95 29.2842 105.967 29.284C106.891 29.2838 107.815 29.284 108.745 29.284C108.745 28.5129 108.745 27.8662 108.745 27.1877C106.61 27.1877 104.523 27.1222 102.442 27.2077C100.671 27.2804 99.2461 28.5429 99.1738 30.223C99.0591 32.8849 99.1432 35.5555 99.1432 38.2385C99.839 38.2385 100.506 38.2385 101.216 38.2385C101.216 36.642 101.216 35.1014 101.216 33.3952Z" fill="#661395"/>
<path d="M92.1956 29.4372C93.944 29.4878 94.2884 29.8339 94.2908 31.4698C94.2923 32.4416 94.3162 33.4142 94.283 34.3849C94.2429 35.5569 93.7898 35.9952 92.5892 36.0135C91.0177 36.0375 89.4452 36.0376 87.8737 36.013C86.6732 35.9942 86.2102 35.5292 86.1935 34.3737C86.1774 33.2709 86.1693 32.1671 86.1965 31.0647C86.2253 29.8941 86.6865 29.4562 87.8894 29.4414C89.2984 29.4241 90.7079 29.4373 92.1956 29.4372ZM93.3675 30.372C93.1986 30.2967 93.0302 30.1575 92.8606 30.156C91.1225 30.1398 89.3841 30.1382 87.6459 30.1507C87.133 30.1544 86.958 30.4761 86.961 30.9406C86.9687 32.125 86.9729 33.3095 86.9565 34.4937C86.9494 35.0132 87.1846 35.3071 87.7113 35.3097C89.4221 35.3179 91.1339 35.327 92.843 35.2692C93.0735 35.2614 93.4767 34.8775 93.483 34.6592C93.5233 33.2689 93.4747 31.8761 93.3675 30.372Z" fill="#661395"/>
<path d="M28.4958 44.3902C31.7641 44.4636 34.5516 43.3517 37.1392 41.5974C37.5954 41.2881 38.0498 40.8968 38.8028 40.8718C37.7791 42.2983 36.7298 43.5029 35.4512 44.5181C32.8429 46.5892 29.7541 46.7558 26.6744 46.573C21.0027 46.2364 16.0188 43.9087 11.3438 40.8279C11.0682 40.6463 10.7743 40.4925 10.4248 40.3912C11.1009 41.8155 12.1866 42.909 13.3362 43.9204C16.5884 46.7816 20.3716 48.4862 24.6831 49.024C25.1707 49.0848 25.8092 48.9431 26.1354 49.5577C25.9172 50.049 25.4935 49.9991 25.1118 49.9982C23.291 49.9942 21.5539 49.5255 19.8293 49.0069C18.8743 48.7198 17.9288 48.4012 16.9524 48.0883C16.9046 48.671 17.4633 48.8228 17.6444 49.4686C10.798 46.455 5.69112 41.9367 2.58206 34.9885C2.53748 35.6745 2.50919 36.11 2.48136 36.5384C2.13138 36.5855 2.10708 36.3417 2.02709 36.1543C-0.519326 30.1879 -0.601873 24.136 1.41578 18.0182C3.35388 12.1416 6.82202 7.44084 12.175 4.24485C15.5943 2.20338 19.3169 0.967123 23.2497 0.374721C24.333 0.211543 25.4254 0.0674926 26.5184 0.0167647C30.2818 -0.157914 33.7923 1.06708 37.3327 2.07867C39.3287 2.64901 41.2802 3.36225 43.1047 4.38092C43.9675 4.86269 44.7643 5.4204 45.3184 6.25891C45.4632 6.47805 45.6719 6.72496 45.4677 7.00923C45.277 7.27458 44.9995 7.24782 44.72 7.15976C44.3715 7.04997 44.0194 6.95131 43.6717 6.83896C43.4873 6.77936 43.3088 6.74626 43.1684 6.9123C43.0053 7.10513 43.051 7.3148 43.1705 7.50703C43.387 7.85545 43.7168 8.06657 44.0701 8.26302C45.3812 8.9922 46.372 10.0597 47.2037 11.2888C47.3765 11.5442 47.5229 11.8101 47.4976 12.1278C47.3196 12.4629 47.0524 12.1051 46.7983 12.2468C47.1682 12.726 47.5314 13.1966 48.0097 13.8163C46.997 13.7195 46.3354 13.0725 45.435 12.9999C45.4531 13.4031 45.7215 13.608 45.9211 13.8472C47.1732 15.3482 48.4771 16.8112 49.3808 18.5676C49.7036 19.1952 49.9956 19.8399 50 20.5585C50.0036 21.1613 49.7319 21.6517 49.1291 21.8176C48.5304 21.9824 48.2331 21.5186 48.0162 21.0786C47.7475 20.5332 47.5488 19.9534 47.3096 19.3634C47.0266 21.6206 47.8322 23.9071 47.1504 26.2271C46.6424 25.9845 46.6636 25.6095 46.595 25.2651C46.3642 24.107 46.3031 22.8833 45.3748 21.982C45.1104 21.7253 44.8585 21.4451 44.466 21.407C42.6536 21.2312 41.8319 19.9354 41.1672 18.4782C40.2118 16.3834 38.6463 15.0711 36.3396 14.7858C35.5341 14.6862 34.8517 14.5089 34.4024 13.7834C33.8351 12.8674 32.872 12.8775 31.9697 12.7855C28.9946 12.4822 26.1559 12.9266 23.4193 14.1943C21.9094 14.8938 20.2628 15.2498 18.6069 15.5977C19.1788 14.7261 20.2979 14.5698 21.1392 13.6689C18.9572 14.0623 17.2552 15.0226 15.4855 15.8192C11.674 17.5348 10.2956 20.7885 9.67641 24.6314C8.21081 33.7272 14.2379 41.0967 22.0091 43.4843C24.0968 44.1258 26.2194 44.4764 28.4958 44.3902Z" fill="#661395"/>
</svg>
