<svg width="833" height="833" viewBox="0 0 833 833" fill="none" xmlns="http://www.w3.org/2000/svg">
<path d="M474.74 739.541C529.19 740.764 575.63 722.239 618.739 693.013C626.34 687.86 633.91 681.34 646.454 680.924C629.4 704.689 611.918 724.759 590.618 741.672C547.162 776.177 495.703 778.951 444.395 775.906C349.906 770.298 266.872 731.519 188.987 680.193C184.396 677.167 179.499 674.606 173.678 672.917C184.941 696.646 203.028 714.865 222.181 731.714C276.363 779.381 339.391 807.78 411.22 816.74C419.344 817.753 429.982 815.392 435.416 825.631C431.78 833.817 424.722 832.984 418.363 832.97C388.027 832.903 359.089 825.095 330.356 816.455C314.446 811.672 298.694 806.365 282.426 801.151C281.631 810.858 290.938 813.388 293.956 824.146C179.895 773.94 94.814 698.666 43.0171 582.908C42.2745 594.338 41.8032 601.592 41.3394 608.73C35.5087 609.514 35.1039 605.453 33.7713 602.33C-8.65198 502.93 -10.0272 402.106 23.587 300.183C55.8757 202.279 113.655 123.964 202.836 70.7192C259.802 36.7082 321.819 16.1123 387.34 6.24286C405.388 3.52431 423.587 1.12443 441.796 0.279299C504.495 -2.63085 562.98 17.7775 621.962 34.6307C655.216 44.1324 687.729 56.0151 718.123 72.9861C732.498 81.0124 745.773 90.3039 755.004 104.273C757.417 107.924 760.894 112.038 757.492 116.774C754.316 121.195 749.692 120.749 745.035 119.282C739.229 117.452 733.363 115.809 727.571 113.937C724.498 112.944 721.524 112.393 719.185 115.159C716.469 118.371 717.23 121.865 719.22 125.067C722.827 130.872 728.322 134.389 734.207 137.662C756.05 149.81 772.557 167.595 786.414 188.072C789.293 192.326 791.731 196.756 791.31 202.049C788.345 207.631 783.893 201.671 779.659 204.032C785.822 212.016 791.874 219.856 799.842 230.179C782.97 228.568 771.947 217.788 756.947 216.579C757.248 223.295 761.72 226.709 765.045 230.694C785.905 255.701 807.628 280.075 822.683 309.337C828.062 319.792 832.927 330.533 832.999 342.505C833.06 352.547 828.534 360.717 818.491 363.482C808.516 366.228 803.563 358.499 799.95 351.169C795.473 342.084 792.162 332.424 788.178 322.594C783.463 360.2 796.884 398.292 785.526 436.943C777.062 432.901 777.416 426.654 776.273 420.916C772.428 401.622 771.41 381.237 755.944 366.22C751.539 361.943 747.342 357.275 740.803 356.64C710.609 353.712 696.92 332.124 685.846 307.846C669.929 272.948 643.848 251.084 605.418 246.331C591.997 244.672 580.63 241.719 573.144 229.631C563.693 214.371 547.648 214.539 532.615 213.007C483.049 207.954 435.757 215.357 390.166 236.477C365.011 248.13 337.578 254.061 309.991 259.858C319.519 245.336 338.163 242.733 352.179 227.724C315.828 234.278 287.472 250.277 257.988 263.548C194.489 292.13 171.525 346.337 161.209 410.359C136.792 561.895 237.204 684.67 366.672 724.449C401.453 735.135 436.816 740.977 474.74 739.541Z" fill="white"/>
</svg>
