<?xml version="1.0" standalone="no"?>
<!DOCTYPE svg PUBLIC "-//W3C//DTD SVG 20010904//EN"
 "http://www.w3.org/TR/2001/REC-SVG-20010904/DTD/svg10.dtd">
<svg version="1.0" xmlns="http://www.w3.org/2000/svg"
 width="401.000000pt" height="401.000000pt" viewBox="0 0 401.000000 401.000000"
 preserveAspectRatio="xMidYMid meet">
<metadata>
Created by potrace 1.14, written by Peter Selinger 2001-2017
</metadata>
<g transform="translate(0.000000,401.000000) scale(0.100000,-0.100000)"
fill="#000000" stroke="none">
<path d="M1967 3263 c-1 0 -27 -4 -57 -7 -84 -10 -198 -37 -328 -78 -285 -89
-534 -262 -699 -486 -92 -124 -189 -332 -234 -500 -44 -165 -59 -446 -31 -572
6 -25 13 -61 16 -80 7 -47 65 -220 81 -244 11 -15 13 -9 9 45 -3 35 -7 70 -9
77 -3 7 0 10 5 7 6 -3 10 -12 10 -20 0 -29 112 -234 172 -315 133 -180 336
-349 545 -454 51 -25 95 -46 97 -46 3 0 -6 12 -19 26 -46 49 -29 52 88 13 183
-62 360 -92 397 -69 23 14 6 22 -77 35 -122 20 -134 23 -203 46 -164 53 -325
148 -442 262 -62 59 -181 207 -174 215 2 1 39 -21 83 -50 244 -164 450 -255
693 -308 91 -19 335 -25 394 -9 17 4 45 11 63 14 45 7 127 44 136 61 4 8 13
14 20 14 7 0 45 31 84 70 40 38 65 67 55 63 -19 -6 32 43 51 50 7 2 9 7 6 11
-3 3 -52 -22 -110 -56 -102 -61 -197 -102 -262 -114 -456 -81 -909 121 -1114
497 -73 133 -103 244 -107 399 -4 130 42 347 96 454 51 99 202 201 428 288 87
34 210 72 215 66 2 -2 -42 -29 -98 -61 -128 -71 -139 -78 -112 -74 59 10 203
57 335 109 104 41 106 42 277 40 168 -1 193 -8 236 -63 20 -26 34 -33 100 -44
54 -9 89 -22 122 -45 68 -47 122 -105 136 -148 28 -86 105 -162 173 -169 54
-6 107 -80 120 -168 11 -72 17 -95 27 -95 13 0 16 110 6 303 -6 113 3 148 18
70 9 -51 44 -122 65 -133 23 -12 58 15 64 50 11 68 -74 211 -225 379 -35 39
-48 61 -34 61 2 0 34 -11 70 -25 36 -13 65 -22 65 -19 0 3 -16 24 -35 47 -41
48 -45 66 -9 43 46 -31 46 -11 1 50 -44 60 -104 115 -163 149 -42 24 -57 50
-44 74 10 19 11 19 62 1 29 -10 56 -16 60 -14 20 12 4 46 -39 84 -111 98 -385
199 -743 275 -96 20 -147 25 -218 23 -52 -2 -94 -4 -95 -5z"/>
</g>
</svg>
